<?xml version="1.0" encoding="iso-8859-1"?>
<!-- Generator: Adobe Illustrator 19.0.0, SVG Export Plug-In . SVG Version: 6.00 Build 0)  -->
<svg version="1.1" id="Capa_1" xmlns="http://www.w3.org/2000/svg" xmlns:xlink="http://www.w3.org/1999/xlink" x="0px" y="0px"
	 viewBox="0 0 404 404" style="enable-background:new 0 0 404 404;" xml:space="preserve">
<path style="fill:#FDC75B;" d="M394.2,61.7v130.1c0,22.1-17.9,40-40,40h-27.6v-88.5c0-22.1-17.9-40-40-40H77.4V61.8
	c0-22.1,17.9-40,40-40h236.9c11,0,21,4.5,28.3,11.7C389.8,40.6,394.2,50.6,394.2,61.7z"/>
<path style="fill:#ED664C;" d="M326.6,231.7v41.5c0,22.1-17.9,40-40,40H149.4l-62.3,68.9l-15.8-68.9H49.8c-22.1,0-40-17.9-40-40
	v-130c0-22.1,17.9-40,40-40h27.6h209.3c22.1,0,40,17.9,40,40v88.5H326.6z"/>
<path d="M354.2,11.9H117.3C89.7,11.9,67,34.1,67,61.7v31.2H49.8C22.2,92.9,0,115.6,0,143.2v130c0,27.6,22.2,49.7,49.8,49.7h13.6
	l14,61.3c0.8,3.6,3.6,6.6,7.2,7.5c0.8,0.2,1.7,0.4,2.5,0.4c2.8,0,5.5-1.3,7.4-3.4l59.4-65.8h132.8c27.6,0,50.3-22.1,50.3-49.7v-31.3
	h17.2c27.6,0,49.8-22.6,49.8-50.2v-130c0-13.4-5.1-25.8-14.5-35.2C380,17,367.6,11.9,354.2,11.9z M317,273.2
	c0,16.5-13.8,29.7-30.3,29.7H149.4c-2.8,0-5.5,1.4-7.4,3.5l-49.5,54.8L81,310.8c-1-4.5-5.1-7.9-9.7-7.9H49.8
	c-16.6,0-29.8-13.1-29.8-29.7v-130c0-16.5,13.2-30.3,29.8-30.3h236.9c16.5,0,30.3,13.7,30.3,30.3V273.2z M384,191.7
	c0,16.5-13.2,30.2-29.8,30.2H337v-78.7c0-27.6-22.8-50.3-50.3-50.3H87V61.7c0-16.5,13.8-29.8,30.3-29.8h236.9c8,0,15.4,3,21.1,8.7
	s8.7,13.1,8.7,21.1L384,191.7L384,191.7z"/>
<path d="M65,189.9h117.7c5.5,0,10-4.5,10-10s-4.5-10-10-10H65c-5.5,0-10,4.5-10,10S59.4,189.9,65,189.9z"/>
<path d="M269.7,223.9H65c-5.5,0-10,4.5-10,10s4.5,10,10,10h204.7c5.5,0,10-4.5,10-10S275.2,223.9,269.7,223.9z"/>
<g>
</g>
<g>
</g>
<g>
</g>
<g>
</g>
<g>
</g>
<g>
</g>
<g>
</g>
<g>
</g>
<g>
</g>
<g>
</g>
<g>
</g>
<g>
</g>
<g>
</g>
<g>
</g>
<g>
</g>
</svg>
